<svg xmlns="http://www.w3.org/2000/svg" id="Layer_1" viewBox="0 0 750 1334" preserveAspectRatio="none">
  <style>
    .st5{fill:#ffa8a3}.st6{fill:none}
  </style>
  <linearGradient id="SVGID_1_" x1="704.8572" x2="536.8416" y1="34.3095" y2="177.8039" gradientUnits="userSpaceOnUse">
    <stop offset="0" stop-color="#ffc69d"/>
    <stop offset="1" stop-color="#ff59a3"/>
  </linearGradient>
  <path fill="url(#SVGID_1_)" fill-rule="evenodd" d="M750 0v249.5l-155.4-35.3L447.9 0z" clip-rule="evenodd"/>
  <linearGradient id="SVGID_2_" x1="344.1905" x2="-153.8593" y1="566.4141" y2="-42.6468" gradientUnits="userSpaceOnUse">
    <stop offset="0" stop-color="#ff6a97"/>
    <stop offset="1" stop-color="#1f0094"/>
  </linearGradient>
  <path fill="url(#SVGID_2_)" d="M268.8 402.5L102 364.6 0 224.6V51.1l31.8 41.6z"/>
  <linearGradient id="SVGID_3_" x1="257.8369" x2="-243.2133" y1="-73.9066" y2="175.1183" gradientUnits="userSpaceOnUse">
    <stop offset="0" stop-color="#ff6a97"/>
    <stop offset="1" stop-color="#1f0094"/>
  </linearGradient>
  <path fill="url(#SVGID_3_)" d="M203.6 0L31.8 92.7 0 51.1V0z"/>
  <linearGradient id="SVGID_4_" x1="303.4816" x2="329.3024" y1="-3.8968" y2="414.4001" gradientUnits="userSpaceOnUse">
    <stop offset="0" stop-color="#ffc69d"/>
    <stop offset="1" stop-color="#ff59a3"/>
  </linearGradient>
  <path fill="url(#SVGID_4_)" d="M594.6 214.2L268.8 402.5 31.8 92.7 203.6 0h244.3z"/>
  <linearGradient id="SVGID_5_" x1="19.4324" x2="88.0423" y1="218.4956" y2="595.85" gradientUnits="userSpaceOnUse">
    <stop offset="0" stop-color="#5581ff"/>
    <stop offset="1" stop-color="#00246a"/>
  </linearGradient>
  <path fill="url(#SVGID_5_)" d="M102 364.6L0 419.7V224.6z"/>
  <path d="M382-96.2z" class="st5"/>
  <path d="M31.6 92.8l.2-.1" class="st6"/>
  <linearGradient id="SVGID_6_" x1="717.1014" x2="352.0162" y1="767.9255" y2="1079.728" gradientUnits="userSpaceOnUse">
    <stop offset="0" stop-color="#ffc69d"/>
    <stop offset="1" stop-color="#ff59a3"/>
  </linearGradient>
  <path fill="url(#SVGID_6_)" fill-rule="evenodd" d="M750 617v316.7l-351.9 132.2 192-383.4z" clip-rule="evenodd"/>
  <linearGradient id="SVGID_7_" x1="201.621" x2="378.3467" y1="774.6827" y2="1320.2272" gradientUnits="userSpaceOnUse">
    <stop offset="0" stop-color="#ff6a97"/>
    <stop offset="1" stop-color="#1f0094"/>
  </linearGradient>
  <path fill="url(#SVGID_7_)" d="M467.6 1334h-199l-99.1-382.6 123.6-246.8 105 361.3z"/>
  <linearGradient id="SVGID_8_" x1="570.7949" x2="596.2209" y1="946.9961" y2="1358.8988" gradientUnits="userSpaceOnUse">
    <stop offset="0" stop-color="#ffc69d"/>
    <stop offset="1" stop-color="#ff59a3"/>
  </linearGradient>
  <path fill="url(#SVGID_8_)" d="M750 933.7V1334H467.6l-69.5-268.1z"/>
  <linearGradient id="SVGID_9_" x1="210.9147" x2="-.4438" y1="970.2868" y2="1541.8174" gradientUnits="userSpaceOnUse">
    <stop offset="0" stop-color="#5581ff"/>
    <stop offset="1" stop-color="#00246a"/>
  </linearGradient>
  <path fill="url(#SVGID_9_)" d="M268.6 1334H0v-313.2l169.5-69.4z"/>
  <path d="M398.1 1065.9z" class="st5"/>
  <path d="M498 1451.3v-.2" class="st6"/>
</svg>
