<svg xmlns="http://www.w3.org/2000/svg" xmlns:xlink="http://www.w3.org/1999/xlink" viewBox="0 0 750 419.7"><defs><style>.cls-1{fill:url(#linear-gradient);}.cls-2{fill:url(#linear-gradient-2);}.cls-3{fill:url(#linear-gradient-3);}.cls-4{fill:url(#linear-gradient-4);}.cls-5{fill:url(#linear-gradient-5);}.cls-6{fill:none;}</style><linearGradient id="linear-gradient" x1="704.85" y1="-260.3" x2="536.84" y2="-403.8" gradientTransform="matrix(1, 0, 0, -1, 0, -226)" gradientUnits="userSpaceOnUse"><stop offset="0" stop-color="#fcc69f"/><stop offset="1" stop-color="#ef5ca1"/></linearGradient><linearGradient id="linear-gradient-2" x1="344.2" y1="-792.4" x2="-153.85" y2="-183.34" gradientTransform="matrix(1, 0, 0, -1, 0, -226)" gradientUnits="userSpaceOnUse"><stop offset="0" stop-color="#f16a96"/><stop offset="1" stop-color="#2d2d87"/></linearGradient><linearGradient id="linear-gradient-3" x1="257.84" y1="-152.1" x2="-243.21" y2="-401.13" xlink:href="#linear-gradient-2"/><linearGradient id="linear-gradient-4" x1="303.49" y1="-222.1" x2="329.31" y2="-640.4" xlink:href="#linear-gradient"/><linearGradient id="linear-gradient-5" x1="19.43" y1="-444.49" x2="88.04" y2="-821.85" gradientTransform="matrix(1, 0, 0, -1, 0, -226)" gradientUnits="userSpaceOnUse"><stop offset="0" stop-color="#5e7abc"/><stop offset="1" stop-color="#222f66"/></linearGradient></defs><title>Top-wallpapr</title><g id="Layer_2" data-name="Layer 2"><g id="Layer_1-2" data-name="Layer 1"><polygon class="cls-1" points="750 0 750 249.5 594.6 214.2 447.9 0 750 0"/><polygon class="cls-2" points="268.8 402.5 102 364.6 0 224.6 0 51.1 31.8 92.7 268.8 402.5"/><polygon class="cls-3" points="203.6 0 31.8 92.7 0 51.1 0 0 203.6 0"/><polygon class="cls-4" points="594.6 214.2 268.8 402.5 31.8 92.7 203.6 0 447.9 0 594.6 214.2"/><polygon class="cls-5" points="102 364.6 0 419.7 0 224.6 102 364.6"/><line class="cls-6" x1="31.6" y1="92.8" x2="31.8" y2="92.7"/></g></g></svg>