<?xml version="1.0" encoding="UTF-8"?>
<svg width="107px" height="13px" viewBox="0 0 107 13" version="1.1" xmlns="http://www.w3.org/2000/svg" xmlns:xlink="http://www.w3.org/1999/xlink">
    <!-- Generator: Sketch 48.2 (47327) - http://www.bohemiancoding.com/sketch -->
    <title>Page 1</title>
    <desc>Created with Sketch.</desc>
    <defs>
        <polygon id="path-1" points="0 0 22 0 22 13 0 13"></polygon>
        <polygon id="path-3" points="29 0 51 0 51 13 29 13"></polygon>
        <polygon id="path-5" points="57 0 79 0 79 13 57 13"></polygon>
        <polygon id="path-7" points="85 0 107 0 107 13 85 13"></polygon>
    </defs>
    <g id="Main-Screen-iOS-English" stroke="none" stroke-width="1" fill="none" fill-rule="evenodd" transform="translate(-134.000000, -20.000000)">
        <g id="Page-1" transform="translate(134.000000, 20.000000)">
            <mask id="mask-2" fill="white">
                <use xlink:href="#path-1"></use>
            </mask>
            <g id="Clip-2"></g>
            <path d="M21.4114607,13 L8.83277094,13 C3.95458276,13 0,9.04186298 0,4.15929044 L0,0.605803146 C0,0.271105275 0.27119623,0 0.605259158,0 L2.67751938,0 C3.0119167,0 3.28277854,0.271105275 3.28277854,0.605803146 L3.28277854,4.15895574 C3.28277854,7.22713112 5.76768506,9.714271 8.83310534,9.714271 L18.1286822,9.714271 C18.4537164,9.714271 18.7172215,9.45052908 18.7172215,9.12520275 L18.7172215,0.589068253 C18.7172215,0.263741922 18.9807266,0 19.3057608,0 L21.4114607,0 C21.7364949,0 22,0.263741922 22,0.589068253 L22,12.4109317 C22,12.7362581 21.7364949,13 21.4114607,13" id="Fill-1" fill="#FFFFFF" mask="url(#mask-2)"></path>
            <mask id="mask-4" fill="white">
                <use xlink:href="#path-3"></use>
            </mask>
            <g id="Clip-5"></g>
            <path d="M46.4522655,9.76482965 L32.8378198,9.76482965 C32.5315165,9.76482965 32.2827286,9.51997566 32.2827286,9.21778037 L32.2827286,7.81983878 C32.2827286,7.51764348 32.5315165,7.2727895 32.8378198,7.2727895 L46.5218191,7.2727895 L46.5218191,7.27377814 C47.2400936,7.27377814 47.819261,7.86267998 47.7841498,8.58142365 C47.751045,9.25633746 47.138104,9.76482965 46.4522655,9.76482965 Z M46.5218191,2.67065504 C47.3056345,2.67065504 47.9239258,3.37522815 47.758736,4.1766883 C47.6390236,4.75899919 47.0909547,5.16170655 46.4877111,5.16170655 L32.8378198,5.16170655 C32.5315165,5.16170655 32.2827286,4.91685257 32.2827286,4.61465727 L32.2827286,3.21770432 C32.2827286,2.91550902 32.5315165,2.67065504 32.8378198,2.67065504 L46.5218191,2.67065504 Z M51,4.05739201 C51,1.81976273 48.9919746,0 46.5218191,0 L29.5550911,0 C29.2487878,0 29,0.244853985 29,0.54704928 L29,12.4529507 C29,12.755146 29.2487878,13 29.5550911,13 L46.5218191,13 C48.9919746,13 51,11.1776009 51,8.93997161 C51,8.02580612 50.6636014,7.17952748 50.0974753,6.5 C50.6636014,5.82047252 51,4.97419388 51,4.05739201 Z" id="Fill-4" fill="#FFFFFF" mask="url(#mask-4)"></path>
            <mask id="mask-6" fill="white">
                <use xlink:href="#path-5"></use>
            </mask>
            <g id="Clip-8"></g>
            <path d="M77.6904277,12.6928459 C77.5885143,12.8820159 77.3890313,13 77.1718388,13 L65.0013724,13 C60.589357,13 57,10.0840136 57,6.5 C57,2.91598641 60.589357,0 65.0013724,0 L78.5932803,0 C78.8996888,0 79.0958304,0.321984485 78.951815,0.588931704 L77.6904277,2.9281803 C77.5885143,3.11702074 77.3890313,3.23533438 77.1718388,3.23533438 L65.0013724,3.23533438 C62.5694845,3.23533438 60.5910277,4.69991888 60.5910277,6.5 C60.5910277,8.30008112 62.5694845,9.76466562 65.0013724,9.76466562 L78.5932803,9.76466562 C78.8996888,9.76466562 79.0958304,10.0866501 78.951815,10.3535973 L77.6904277,12.6928459 Z" id="Fill-7" fill="#FFFFFF" mask="url(#mask-6)"></path>
            <mask id="mask-8" fill="white">
                <use xlink:href="#path-7"></use>
            </mask>
            <g id="Clip-11"></g>
            <path d="M88.2827785,9.14706181 C88.2827785,9.48816103 88.5633379,9.76466562 88.9094391,9.76466562 L99.6853929,9.76466562 C101.908466,9.76466562 103.717221,8.30008112 103.717221,6.49967044 C103.717221,4.69958931 101.908466,3.23533438 99.6853929,3.23533438 L88.9094391,3.23533438 C88.5633379,3.23533438 88.2827785,3.51183897 88.2827785,3.85293819 L88.2827785,9.14706181 Z M99.6853929,13 L85.6266606,13 C85.2805594,13 85,12.7234954 85,12.3823962 L85,0.617603813 C85,0.276504589 85.2805594,0 85.6266606,0 L99.6853929,0 C103.718559,0 107,2.91598641 107,6.49967044 C107,10.0840136 103.718559,13 99.6853929,13 Z" id="Fill-10" fill="#FFFFFF" mask="url(#mask-8)"></path>
        </g>
    </g>
</svg>